<?xml version="1.0" encoding="utf-8"?>
<!-- Generator: Adobe Illustrator 25.0.0, SVG Export Plug-In . SVG Version: 6.00 Build 0)  -->
<svg version="1.1" id="Layer_1" xmlns="http://www.w3.org/2000/svg" xmlns:xlink="http://www.w3.org/1999/xlink" x="0px" y="0px"
	 viewBox="0 0 206.61 258.85" style="enable-background:new 0 0 206.61 258.85;" xml:space="preserve">
<style type="text/css">
	.st0{fill:#080059;}
	.st1{fill:#FFFFFF;}
	.st2{fill:#F9A603;}
	.st3{fill:#F9A504;}
	.st4{fill:#F9A406;}
	.st5{fill:#F9A307;}
	.st6{fill:#F9A208;}
	.st7{fill:#F9A10A;}
	.st8{fill:#F9A00B;}
	.st9{fill:#F99F0C;}
	.st10{fill:#F99E0E;}
	.st11{fill:#F99C0F;}
	.st12{fill:#F99B10;}
	.st13{fill:#F99A12;}
	.st14{fill:#F99913;}
	.st15{fill:#F99814;}
	.st16{fill:#F99716;}
	.st17{fill:#F99617;}
	.st18{fill:#F99518;}
	.st19{fill:#FA941A;}
	.st20{fill:#FA931B;}
	.st21{fill:#FA921C;}
	.st22{fill:#FA911E;}
	.st23{fill:#FA901F;}
	.st24{fill:#FA8F20;}
	.st25{fill:#FA8E22;}
	.st26{fill:#FA8D23;}
	.st27{fill:#FA8C24;}
	.st28{fill:#FA8A26;}
	.st29{fill:#FA8927;}
	.st30{fill:#FA8828;}
	.st31{fill:#FA872A;}
	.st32{fill:#FA862B;}
	.st33{fill:#FA852C;}
	.st34{fill:#FA842E;}
	.st35{fill:#FA832F;}
	.st36{fill:#FA8230;}
	.st37{fill:#FA8132;}
	.st38{fill:#FA8033;}
	.st39{fill:#FA7F34;}
	.st40{fill:#FA7E36;}
	.st41{fill:#FA7D37;}
	.st42{fill:#FA7C38;}
	.st43{fill:#FA7B3A;}
	.st44{fill:#FA7A3B;}
	.st45{fill:#FA783C;}
	.st46{fill:#FA773E;}
	.st47{fill:#FA763F;}
	.st48{fill:#FA7540;}
	.st49{fill:#FA7442;}
	.st50{fill:#FA7343;}
	.st51{fill:#FA7244;}
	.st52{fill:#FA7146;}
	.st53{fill:#FB7047;}
	.st54{fill:#FB6F49;}
	.st55{fill:#FB6E4A;}
	.st56{fill:#FB6D4B;}
	.st57{fill:#FB6C4D;}
	.st58{fill:#FB6B4E;}
	.st59{fill:#FB6A4F;}
	.st60{fill:#FB6951;}
	.st61{fill:#FB6752;}
	.st62{fill:#FB6653;}
	.st63{fill:#FB6555;}
	.st64{fill:#FB6456;}
	.st65{fill:#FB6357;}
	.st66{fill:#FB6259;}
	.st67{fill:#FB615A;}
	.st68{fill:#FB605B;}
	.st69{fill:#FB5F5D;}
	.st70{fill:#FB5E5E;}
	.st71{fill:#FB5D5F;}
	.st72{fill:#FB5C61;}
	.st73{fill:#FB5B62;}
	.st74{fill:#FB5A63;}
	.st75{fill:#FB5965;}
	.st76{fill:#FB5866;}
	.st77{fill:#FB5767;}
	.st78{fill:#FB5569;}
	.st79{fill:#FB546A;}
	.st80{fill:#FB536B;}
	.st81{fill:#FB526D;}
	.st82{fill:#FB516E;}
	.st83{fill:#FB506F;}
	.st84{fill:#FB4F71;}
	.st85{fill:#FB4E72;}
	.st86{fill:#FB4D73;}
	.st87{fill:#FC4C75;}
	.st88{fill:#FC4B76;}
	.st89{fill:#FC4A77;}
	.st90{fill:#FC4979;}
	.st91{fill:#FC487A;}
	.st92{fill:#FC477B;}
	.st93{fill:#FC467D;}
	.st94{fill:#FC457E;}
	.st95{fill:#FC437F;}
	.st96{fill:#FC4281;}
	.st97{fill:#FC4182;}
	.st98{fill:#FC4083;}
	.st99{fill:#FC3F85;}
	.st100{fill:#FC3E86;}
	.st101{fill:#FC3D87;}
	.st102{fill:#FC3C89;}
	.st103{fill:#FC3B8A;}
	.st104{fill:#FC3B8B;}
	.st105{fill:#FB3B8C;}
	.st106{fill:#FB3B8D;}
	.st107{fill:#FA3A8E;}
	.st108{fill:#F93A8F;}
	.st109{fill:#F93A90;}
	.st110{fill:#F83A91;}
	.st111{fill:#F83A92;}
	.st112{fill:#F73A93;}
	.st113{fill:#F73994;}
	.st114{fill:#F63995;}
	.st115{fill:#F63996;}
	.st116{fill:#F53996;}
	.st117{fill:#F53997;}
	.st118{fill:#F43998;}
	.st119{fill:#F43899;}
	.st120{fill:#F3389A;}
	.st121{fill:#F3389B;}
	.st122{fill:#F2389C;}
	.st123{fill:#F2389D;}
	.st124{fill:#F2389E;}
	.st125{fill:#F1389E;}
	.st126{fill:#F1379F;}
	.st127{fill:#F037A0;}
	.st128{fill:#F037A1;}
	.st129{fill:#EF37A2;}
	.st130{fill:#EF37A3;}
	.st131{fill:#EE37A4;}
	.st132{fill:#EE37A5;}
	.st133{fill:#ED36A6;}
	.st134{fill:#ED36A7;}
	.st135{fill:#EC36A7;}
	.st136{fill:#EC36A8;}
	.st137{fill:#EB36A9;}
	.st138{fill:#EB36AA;}
	.st139{fill:#EA36AB;}
	.st140{fill:#EA35AC;}
	.st141{fill:#E935AD;}
	.st142{fill:#E935AE;}
	.st143{fill:#E935AF;}
	.st144{fill:#E835AF;}
	.st145{fill:#E835B0;}
	.st146{fill:#E734B1;}
	.st147{fill:#E734B2;}
	.st148{fill:#E634B3;}
	.st149{fill:#E634B4;}
	.st150{fill:#E534B5;}
	.st151{fill:#E534B6;}
	.st152{fill:#E434B7;}
	.st153{fill:#E433B7;}
	.st154{fill:#E333B8;}
	.st155{fill:#E333B9;}
	.st156{fill:#E233BA;}
	.st157{fill:#E233BB;}
	.st158{fill:#E133BC;}
	.st159{fill:#E133BD;}
	.st160{fill:#E032BE;}
	.st161{fill:#E032BF;}
	.st162{fill:#DF32BF;}
	.st163{fill:#DF32C0;}
	.st164{fill:#DF32C1;}
	.st165{fill:#DE32C2;}
	.st166{fill:#DE31C3;}
	.st167{fill:#DD31C4;}
	.st168{fill:#DD31C5;}
	.st169{fill:#DC31C6;}
	.st170{fill:#DC31C7;}
	.st171{fill:#DB31C7;}
	.st172{fill:#DB31C8;}
	.st173{fill:#DA30C9;}
	.st174{fill:#DA30CA;}
	.st175{fill:#D930CB;}
	.st176{fill:#D930CC;}
	.st177{fill:#D830CD;}
	.st178{fill:#D830CE;}
	.st179{fill:#D730CF;}
	.st180{fill:#D72FD0;}
	.st181{fill:#D62FD0;}
	.st182{fill:#D62FD1;}
	.st183{fill:#D62FD2;}
	.st184{fill:#D52FD3;}
	.st185{fill:#D52FD4;}
	.st186{fill:#D42FD5;}
	.st187{fill:#D42ED6;}
	.st188{fill:#D32ED7;}
	.st189{fill:#D32ED8;}
	.st190{fill:#D22ED8;}
	.st191{fill:#D22ED9;}
	.st192{fill:#D12EDA;}
	.st193{fill:#D12DDB;}
	.st194{fill:#D02DDC;}
	.st195{fill:#D02DDD;}
	.st196{fill:#CF2DDE;}
	.st197{fill:#CF2DDF;}
	.st198{fill:#CE2DE0;}
	.st199{fill:#CD2CE1;}
	.st200{fill:#CD2CE2;}
	.st201{fill:#CC2CE3;}
	.st202{fill:#CC2CE4;}
	.st203{fill:#CB2DE4;}
	.st204{fill:#C92EE4;}
	.st205{fill:#C830E5;}
	.st206{fill:#C631E5;}
	.st207{fill:#C532E5;}
	.st208{fill:#C333E5;}
	.st209{fill:#C234E5;}
	.st210{fill:#C036E6;}
	.st211{fill:#BF37E6;}
	.st212{fill:#BD38E6;}
	.st213{fill:#BC39E6;}
	.st214{fill:#BA3AE6;}
	.st215{fill:#B93CE7;}
	.st216{fill:#B73DE7;}
	.st217{fill:#B63EE7;}
	.st218{fill:#B53FE7;}
	.st219{fill:#B340E8;}
	.st220{fill:#B242E8;}
	.st221{fill:#B043E8;}
	.st222{fill:#AF44E8;}
	.st223{fill:#AD45E8;}
	.st224{fill:#AC46E9;}
	.st225{fill:#AA48E9;}
	.st226{fill:#A949E9;}
	.st227{fill:#A74AE9;}
	.st228{fill:#A64BE9;}
	.st229{fill:#A44CEA;}
	.st230{fill:#A34EEA;}
	.st231{fill:#A24FEA;}
	.st232{fill:#A050EA;}
	.st233{fill:#9F51EA;}
	.st234{fill:#9D52EB;}
	.st235{fill:#9C54EB;}
	.st236{fill:#9A55EB;}
	.st237{fill:#9956EB;}
	.st238{fill:#9757EB;}
	.st239{fill:#9658EC;}
	.st240{fill:#945AEC;}
	.st241{fill:#935BEC;}
	.st242{fill:#915CEC;}
	.st243{fill:#905DED;}
	.st244{fill:#8E5EED;}
	.st245{fill:#8D60ED;}
	.st246{fill:#8C61ED;}
	.st247{fill:#8A62ED;}
	.st248{fill:#8963EE;}
	.st249{fill:#8764EE;}
	.st250{fill:#8666EE;}
	.st251{fill:#8467EE;}
	.st252{fill:#8368EE;}
	.st253{fill:#8169EF;}
	.st254{fill:#806AEF;}
	.st255{fill:#7E6BEF;}
	.st256{fill:#7D6DEF;}
	.st257{fill:#7B6EEF;}
	.st258{fill:#7A6FF0;}
	.st259{fill:#7870F0;}
	.st260{fill:#7771F0;}
	.st261{fill:#7673F0;}
	.st262{fill:#7474F0;}
	.st263{fill:#7375F1;}
	.st264{fill:#7176F1;}
	.st265{fill:#7077F1;}
	.st266{fill:#6E79F1;}
	.st267{fill:#6D7AF2;}
	.st268{fill:#6B7BF2;}
	.st269{fill:#6A7CF2;}
	.st270{fill:#687DF2;}
	.st271{fill:#677FF2;}
	.st272{fill:#6580F3;}
	.st273{fill:#6481F3;}
	.st274{fill:#6282F3;}
	.st275{fill:#6183F3;}
	.st276{fill:#6085F3;}
	.st277{fill:#5E86F4;}
	.st278{fill:#5D87F4;}
	.st279{fill:#5B88F4;}
	.st280{fill:#5A89F4;}
	.st281{fill:#588BF4;}
	.st282{fill:#578CF5;}
	.st283{fill:#558DF5;}
	.st284{fill:#548EF5;}
	.st285{fill:#528FF5;}
	.st286{fill:#5191F5;}
	.st287{fill:#4F92F6;}
	.st288{fill:#4E93F6;}
	.st289{fill:#4D94F6;}
	.st290{fill:#4B95F6;}
	.st291{fill:#4A97F7;}
	.st292{fill:#4898F7;}
	.st293{fill:#4799F7;}
	.st294{fill:#459AF7;}
	.st295{fill:#449BF7;}
	.st296{fill:#429DF8;}
	.st297{fill:#419EF8;}
	.st298{fill:#3F9FF8;}
	.st299{fill:#3EA0F8;}
	.st300{fill:#3CA1F8;}
	.st301{fill:#3BA3F9;}
	.st302{fill:#39A4F9;}
	.st303{fill:#38A5F9;}
	.st304{fill:#38A6F9;}
	.st305{fill:#37A6F8;}
	.st306{fill:#37A7F8;}
	.st307{fill:#37A8F7;}
	.st308{fill:#36A9F6;}
	.st309{fill:#36AAF6;}
	.st310{fill:#35ABF5;}
	.st311{fill:#35ACF5;}
	.st312{fill:#35ADF4;}
	.st313{fill:#34AEF3;}
	.st314{fill:#34AFF3;}
	.st315{fill:#34AFF2;}
	.st316{fill:#33B0F2;}
	.st317{fill:#33B1F2;}
	.st318{fill:#33B1F1;}
	.st319{fill:#33B2F1;}
	.st320{fill:#32B3F0;}
	.st321{fill:#32B4EF;}
	.st322{fill:#31B5EF;}
	.st323{fill:#31B6EE;}
	.st324{fill:#31B7EE;}
	.st325{fill:#30B7ED;}
	.st326{fill:#30B8ED;}
	.st327{fill:#30B9EC;}
	.st328{fill:#2FB9EC;}
	.st329{fill:#2FBAEB;}
	.st330{fill:#2FBBEB;}
	.st331{fill:#2FBCEB;}
	.st332{fill:#2EBCEA;}
	.st333{fill:#2EBDEA;}
	.st334{fill:#2EBEE9;}
	.st335{fill:#2DBEE9;}
	.st336{fill:#2DBFE8;}
	.st337{fill:#2DC0E8;}
	.st338{fill:#2CC1E7;}
	.st339{fill:#2CC2E7;}
	.st340{fill:#2CC2E6;}
	.st341{fill:#2BC3E6;}
	.st342{fill:#2BC4E5;}
	.st343{fill:#2BC5E5;}
	.st344{fill:#2AC6E4;}
	.st345{fill:#2AC7E3;}
	.st346{fill:#29C8E3;}
	.st347{fill:#29C9E2;}
	.st348{fill:#28CAE1;}
	.st349{fill:#28CBE1;}
	.st350{fill:#28CCE0;}
	.st351{fill:#27CDE0;}
	.st352{fill:#27CDDF;}
	.st353{fill:#27CEDF;}
	.st354{fill:#26CFDE;}
	.st355{fill:#26D0DE;}
	.st356{fill:#26D1DD;}
	.st357{fill:#25D1DD;}
	.st358{fill:#25D2DC;}
	.st359{fill:#25D3DC;}
	.st360{fill:#24D3DB;}
	.st361{fill:#24D4DB;}
	.st362{fill:#24D5DB;}
	.st363{fill:#24D6DA;}
	.st364{fill:#23D6DA;}
	.st365{fill:#23D7D9;}
	.st366{fill:#23D8D9;}
	.st367{fill:#22D8D8;}
	.st368{fill:#22D9D8;}
	.st369{fill:#22DAD7;}
	.st370{fill:#21DBD7;}
	.st371{fill:#21DCD6;}
	.st372{fill:#20DDD5;}
	.st373{fill:#20DED5;}
	.st374{fill:#20DED4;}
	.st375{fill:#20DFD4;}
	.st376{fill:#1FE0D4;}
	.st377{fill:#1FE0D3;}
	.st378{fill:#1FE1D3;}
	.st379{fill:#1EE2D2;}
	.st380{fill:#1EE3D1;}
	.st381{fill:#1EE4D1;}
	.st382{fill:#1DE5D0;}
	.st383{fill:#1DE6D0;}
	.st384{fill:#1CE7CF;}
	.st385{fill:#1CE8CE;}
	.st386{fill:#1CE9CE;}
	.st387{fill:#1BE9CD;}
	.st388{fill:#1BEACD;}
</style>
<g>
	<g>
		<circle class="st2" cx="180.06" cy="95.36" r="26.55"/>
		<circle class="st3" cx="180.06" cy="93.87" r="26.55"/>
		<circle class="st4" cx="180.06" cy="92.37" r="26.55"/>
		<circle class="st5" cx="180.06" cy="90.88" r="26.55"/>
		<circle class="st6" cx="180.06" cy="89.38" r="26.55"/>
		<circle class="st7" cx="180.06" cy="87.88" r="26.55"/>
		<circle class="st8" cx="180.06" cy="86.39" r="26.55"/>
		<circle class="st9" cx="180.06" cy="84.89" r="26.55"/>
		<circle class="st10" cx="180.06" cy="83.4" r="26.55"/>
		<circle class="st11" cx="180.06" cy="81.9" r="26.55"/>
		<circle class="st12" cx="180.06" cy="80.4" r="26.55"/>
		<circle class="st13" cx="180.06" cy="78.91" r="26.55"/>
		<circle class="st14" cx="180.06" cy="77.41" r="26.55"/>
		<circle class="st15" cx="180.06" cy="75.92" r="26.55"/>
		<circle class="st16" cx="180.06" cy="74.42" r="26.55"/>
		<circle class="st17" cx="180.06" cy="72.92" r="26.55"/>
		<circle class="st18" cx="180.06" cy="71.43" r="26.55"/>
		<circle class="st19" cx="180.06" cy="69.93" r="26.55"/>
		<circle class="st20" cx="180.06" cy="68.44" r="26.55"/>
		<circle class="st21" cx="180.06" cy="66.94" r="26.55"/>
		<circle class="st22" cx="180.06" cy="65.44" r="26.55"/>
		<circle class="st23" cx="180.06" cy="63.95" r="26.55"/>
		<circle class="st24" cx="180.06" cy="62.45" r="26.55"/>
		<circle class="st25" cx="180.06" cy="60.96" r="26.55"/>
		<circle class="st26" cx="180.06" cy="59.46" r="26.55"/>
		<circle class="st27" cx="180.06" cy="57.97" r="26.55"/>
		<circle class="st28" cx="180.06" cy="56.47" r="26.55"/>
		<circle class="st29" cx="180.06" cy="54.97" r="26.55"/>
		<circle class="st30" cx="180.06" cy="53.48" r="26.55"/>
		<circle class="st31" cx="180.06" cy="51.98" r="26.55"/>
		<circle class="st32" cx="180.06" cy="50.49" r="26.55"/>
		<circle class="st33" cx="180.06" cy="48.99" r="26.55"/>
		<circle class="st34" cx="180.06" cy="47.49" r="26.55"/>
		<circle class="st35" cx="180.06" cy="46" r="26.55"/>
		<circle class="st36" cx="180.06" cy="44.5" r="26.55"/>
		<circle class="st37" cx="180.06" cy="43.01" r="26.55"/>
		<circle class="st38" cx="180.06" cy="41.51" r="26.55"/>
		<circle class="st39" cx="180.06" cy="40.01" r="26.55"/>
		<circle class="st40" cx="180.06" cy="38.52" r="26.55"/>
		<circle class="st41" cx="180.06" cy="37.02" r="26.55"/>
		<circle class="st42" cx="180.06" cy="35.53" r="26.55"/>
		<circle class="st43" cx="180.06" cy="34.03" r="26.55"/>
		<circle class="st44" cx="180.06" cy="32.53" r="26.55"/>
		<circle class="st45" cx="180.06" cy="31.04" r="26.55"/>
		<circle class="st46" cx="180.06" cy="29.54" r="26.55"/>
		<circle class="st47" cx="180.06" cy="28.05" r="26.55"/>
		<circle class="st48" cx="180.06" cy="26.55" r="26.55"/>
		<circle class="st49" cx="178.99" cy="26.69" r="26.55"/>
		<circle class="st50" cx="177.61" cy="27.29" r="26.55"/>
		<circle class="st51" cx="176.24" cy="27.88" r="26.55"/>
		<circle class="st52" cx="174.87" cy="28.47" r="26.55"/>
		<circle class="st53" cx="173.49" cy="29.07" r="26.55"/>
		<circle class="st54" cx="172.12" cy="29.66" r="26.55"/>
		<circle class="st55" cx="170.75" cy="30.25" r="26.55"/>
		<circle class="st56" cx="169.37" cy="30.85" r="26.55"/>
		<circle class="st57" cx="168" cy="31.44" r="26.55"/>
		<circle class="st58" cx="166.63" cy="32.03" r="26.55"/>
		<circle class="st59" cx="165.25" cy="32.63" r="26.55"/>
		<circle class="st60" cx="163.88" cy="33.22" r="26.55"/>
		<circle class="st61" cx="162.51" cy="33.81" r="26.55"/>
		<circle class="st62" cx="161.13" cy="34.41" r="26.55"/>
		<circle class="st63" cx="159.76" cy="35" r="26.55"/>
		<circle class="st64" cx="158.39" cy="35.59" r="26.55"/>
		<circle class="st65" cx="157.01" cy="36.19" r="26.55"/>
		<circle class="st66" cx="155.64" cy="36.78" r="26.55"/>
		<circle class="st67" cx="154.27" cy="37.37" r="26.55"/>
		<circle class="st68" cx="152.89" cy="37.97" r="26.55"/>
		<circle class="st69" cx="151.52" cy="38.56" r="26.55"/>
		<circle class="st70" cx="150.15" cy="39.15" r="26.55"/>
		<circle class="st71" cx="148.77" cy="39.75" r="26.55"/>
		<circle class="st72" cx="147.4" cy="40.34" r="26.55"/>
		<circle class="st73" cx="146.03" cy="40.93" r="26.55"/>
		<circle class="st74" cx="144.65" cy="41.53" r="26.55"/>
		<circle class="st75" cx="143.28" cy="42.12" r="26.55"/>
		<circle class="st76" cx="141.91" cy="42.72" r="26.55"/>
		<circle class="st77" cx="140.53" cy="43.31" r="26.55"/>
		<circle class="st78" cx="139.16" cy="43.9" r="26.55"/>
		<circle class="st79" cx="137.79" cy="44.5" r="26.55"/>
		<circle class="st80" cx="136.41" cy="45.09" r="26.55"/>
		<circle class="st81" cx="135.04" cy="45.68" r="26.55"/>
		<circle class="st82" cx="133.67" cy="46.28" r="26.55"/>
		<circle class="st83" cx="132.29" cy="46.87" r="26.55"/>
		<circle class="st84" cx="130.92" cy="47.46" r="26.55"/>
		<circle class="st85" cx="129.55" cy="48.06" r="26.55"/>
		<circle class="st86" cx="128.18" cy="48.65" r="26.55"/>
		<circle class="st87" cx="126.8" cy="49.24" r="26.55"/>
		<circle class="st88" cx="125.43" cy="49.84" r="26.55"/>
		<circle class="st89" cx="124.06" cy="50.43" r="26.55"/>
		<circle class="st90" cx="122.68" cy="51.02" r="26.55"/>
		<circle class="st91" cx="121.31" cy="51.62" r="26.55"/>
		<circle class="st92" cx="119.94" cy="52.21" r="26.55"/>
		<circle class="st93" cx="118.56" cy="52.8" r="26.55"/>
		<circle class="st94" cx="117.19" cy="53.4" r="26.55"/>
		<circle class="st95" cx="115.82" cy="53.99" r="26.55"/>
		<circle class="st96" cx="114.44" cy="54.58" r="26.55"/>
		<circle class="st97" cx="113.07" cy="55.18" r="26.55"/>
		<circle class="st98" cx="111.7" cy="55.77" r="26.55"/>
		<circle class="st99" cx="110.32" cy="56.36" r="26.55"/>
		<circle class="st100" cx="108.95" cy="56.96" r="26.55"/>
		<circle class="st101" cx="107.58" cy="57.55" r="26.55"/>
		<circle class="st102" cx="106.2" cy="58.14" r="26.55"/>
		<circle class="st103" cx="104.83" cy="58.74" r="26.55"/>
		<circle class="st104" cx="103.39" cy="59.36" r="26.55"/>
		<circle class="st105" cx="101.95" cy="59.98" r="26.55"/>
		<circle class="st106" cx="100.51" cy="60.6" r="26.55"/>
		<circle class="st107" cx="99.07" cy="61.22" r="26.55"/>
		<circle class="st107" cx="97.64" cy="61.85" r="26.55"/>
		<circle class="st108" cx="96.2" cy="62.47" r="26.55"/>
		<circle class="st109" cx="94.76" cy="63.09" r="26.55"/>
		<circle class="st110" cx="93.32" cy="63.71" r="26.55"/>
		<circle class="st111" cx="91.88" cy="64.33" r="26.55"/>
		<circle class="st112" cx="90.44" cy="64.95" r="26.55"/>
		<circle class="st113" cx="89" cy="65.58" r="26.55"/>
		<circle class="st114" cx="87.56" cy="66.2" r="26.55"/>
		<circle class="st115" cx="86.13" cy="66.82" r="26.55"/>
		<circle class="st116" cx="84.69" cy="67.44" r="26.55"/>
		<circle class="st117" cx="83.25" cy="68.06" r="26.55"/>
		<circle class="st118" cx="81.81" cy="68.68" r="26.55"/>
		<circle class="st119" cx="80.37" cy="69.31" r="26.55"/>
		<circle class="st120" cx="78.93" cy="69.93" r="26.55"/>
		<circle class="st121" cx="77.49" cy="70.55" r="26.55"/>
		<circle class="st122" cx="76.05" cy="71.17" r="26.55"/>
		<circle class="st123" cx="74.61" cy="71.79" r="26.55"/>
		<circle class="st124" cx="73.18" cy="72.41" r="26.55"/>
		<circle class="st125" cx="71.74" cy="73.04" r="26.55"/>
		<circle class="st126" cx="70.3" cy="73.66" r="26.55"/>
		<circle class="st127" cx="68.86" cy="74.28" r="26.55"/>
		<circle class="st128" cx="67.42" cy="74.9" r="26.55"/>
		<circle class="st129" cx="65.98" cy="75.52" r="26.55"/>
		<circle class="st130" cx="64.54" cy="76.14" r="26.55"/>
		<circle class="st131" cx="63.1" cy="76.77" r="26.55"/>
		<circle class="st132" cx="61.67" cy="77.39" r="26.55"/>
		<circle class="st133" cx="60.23" cy="78.01" r="26.55"/>
		<circle class="st134" cx="58.79" cy="78.63" r="26.55"/>
		<circle class="st135" cx="57.35" cy="79.25" r="26.55"/>
		<circle class="st136" cx="55.91" cy="79.87" r="26.55"/>
		<circle class="st137" cx="54.47" cy="80.5" r="26.55"/>
		<circle class="st138" cx="53.03" cy="81.12" r="26.55"/>
		<circle class="st139" cx="51.59" cy="81.74" r="26.55"/>
		<circle class="st140" cx="50.16" cy="82.36" r="26.55"/>
		<circle class="st141" cx="48.72" cy="82.98" r="26.55"/>
		<circle class="st142" cx="47.28" cy="83.6" r="26.55"/>
		<circle class="st143" cx="45.84" cy="84.23" r="26.55"/>
		<circle class="st144" cx="44.4" cy="84.85" r="26.55"/>
		<circle class="st145" cx="42.96" cy="85.47" r="26.55"/>
		<circle class="st146" cx="41.52" cy="86.09" r="26.55"/>
		<circle class="st147" cx="40.08" cy="86.71" r="26.55"/>
		<circle class="st148" cx="38.64" cy="87.34" r="26.55"/>
		<circle class="st149" cx="37.21" cy="87.96" r="26.55"/>
		<circle class="st150" cx="35.77" cy="88.58" r="26.55"/>
		<circle class="st151" cx="34.33" cy="89.2" r="26.55"/>
		<circle class="st152" cx="32.89" cy="89.82" r="26.55"/>
		<circle class="st153" cx="31.45" cy="90.44" r="26.55"/>
		<circle class="st154" cx="30.01" cy="91.07" r="26.55"/>
		<circle class="st155" cx="28.57" cy="91.69" r="26.55"/>
		<circle class="st156" cx="27.13" cy="92.31" r="26.55"/>
		<circle class="st157" cx="27.4" cy="92.94" r="26.55"/>
		<circle class="st158" cx="28.83" cy="93.59" r="26.55"/>
		<circle class="st159" cx="30.26" cy="94.23" r="26.55"/>
		<circle class="st160" cx="31.68" cy="94.88" r="26.55"/>
		<circle class="st161" cx="33.11" cy="95.52" r="26.55"/>
		<circle class="st162" cx="34.54" cy="96.16" r="26.55"/>
		<circle class="st163" cx="35.97" cy="96.81" r="26.55"/>
		<circle class="st164" cx="37.4" cy="97.45" r="26.55"/>
		<circle class="st165" cx="38.83" cy="98.09" r="26.55"/>
		<circle class="st166" cx="40.26" cy="98.74" r="26.55"/>
		<circle class="st167" cx="41.69" cy="99.38" r="26.55"/>
		<circle class="st168" cx="43.12" cy="100.03" r="26.55"/>
		<circle class="st169" cx="44.55" cy="100.67" r="26.55"/>
		<circle class="st170" cx="45.97" cy="101.31" r="26.55"/>
		<circle class="st171" cx="47.4" cy="101.96" r="26.55"/>
		<circle class="st172" cx="48.83" cy="102.6" r="26.55"/>
		<circle class="st173" cx="50.26" cy="103.25" r="26.55"/>
		<circle class="st174" cx="51.69" cy="103.89" r="26.55"/>
		<circle class="st175" cx="53.12" cy="104.53" r="26.55"/>
		<circle class="st176" cx="54.55" cy="105.18" r="26.55"/>
		<circle class="st177" cx="55.98" cy="105.82" r="26.55"/>
		<circle class="st178" cx="57.41" cy="106.46" r="26.55"/>
		<circle class="st179" cx="58.84" cy="107.11" r="26.55"/>
		<circle class="st180" cx="60.26" cy="107.75" r="26.55"/>
		<circle class="st181" cx="61.69" cy="108.4" r="26.55"/>
		<circle class="st182" cx="63.12" cy="109.04" r="26.55"/>
		<circle class="st183" cx="64.55" cy="109.68" r="26.55"/>
		<circle class="st184" cx="65.98" cy="110.33" r="26.55"/>
		<circle class="st185" cx="67.41" cy="110.97" r="26.55"/>
		<circle class="st186" cx="68.84" cy="111.62" r="26.55"/>
		<circle class="st187" cx="70.27" cy="112.26" r="26.55"/>
		<circle class="st188" cx="71.7" cy="112.9" r="26.55"/>
		<circle class="st189" cx="73.13" cy="113.55" r="26.55"/>
		<circle class="st190" cx="74.56" cy="114.19" r="26.55"/>
		<circle class="st191" cx="75.98" cy="114.83" r="26.55"/>
		<circle class="st192" cx="77.41" cy="115.48" r="26.55"/>
		<circle class="st193" cx="78.84" cy="116.12" r="26.55"/>
		<circle class="st194" cx="80.27" cy="116.77" r="26.55"/>
		<circle class="st195" cx="81.7" cy="117.41" r="26.55"/>
		<circle class="st196" cx="83.13" cy="118.05" r="26.55"/>
		<circle class="st197" cx="84.56" cy="118.7" r="26.55"/>
		<circle class="st198" cx="85.99" cy="119.34" r="26.55"/>
		<circle class="st198" cx="87.42" cy="119.99" r="26.55"/>
		<circle class="st199" cx="88.85" cy="120.63" r="26.55"/>
		<circle class="st200" cx="90.27" cy="121.27" r="26.55"/>
		<circle class="st201" cx="91.7" cy="121.92" r="26.55"/>
		<circle class="st202" cx="93.13" cy="122.56" r="26.55"/>
		<circle class="st203" cx="94.63" cy="123.24" r="26.55"/>
		<circle class="st204" cx="96.13" cy="123.91" r="26.55"/>
		<circle class="st205" cx="97.63" cy="124.59" r="26.55"/>
		<circle class="st206" cx="99.12" cy="125.26" r="26.55"/>
		<circle class="st207" cx="100.62" cy="125.93" r="26.55"/>
		<circle class="st208" cx="102.12" cy="126.61" r="26.55"/>
		<circle class="st209" cx="103.62" cy="127.28" r="26.55"/>
		<circle class="st210" cx="105.11" cy="127.96" r="26.55"/>
		<circle class="st211" cx="106.61" cy="128.63" r="26.55"/>
		<circle class="st212" cx="108.11" cy="129.31" r="26.55"/>
		<circle class="st213" cx="109.61" cy="129.98" r="26.55"/>
		<circle class="st214" cx="111.11" cy="130.66" r="26.55"/>
		<circle class="st215" cx="112.6" cy="131.33" r="26.55"/>
		<circle class="st216" cx="114.1" cy="132.01" r="26.55"/>
		<circle class="st217" cx="115.6" cy="132.68" r="26.55"/>
		<circle class="st218" cx="117.1" cy="133.36" r="26.55"/>
		<circle class="st219" cx="118.59" cy="134.03" r="26.55"/>
		<circle class="st220" cx="120.09" cy="134.71" r="26.55"/>
		<circle class="st221" cx="121.59" cy="135.38" r="26.55"/>
		<circle class="st222" cx="123.09" cy="136.06" r="26.55"/>
		<circle class="st223" cx="124.59" cy="136.73" r="26.55"/>
		<circle class="st224" cx="126.08" cy="137.41" r="26.55"/>
		<circle class="st225" cx="127.58" cy="138.08" r="26.55"/>
		<circle class="st226" cx="129.08" cy="138.76" r="26.55"/>
		<circle class="st227" cx="130.58" cy="139.43" r="26.55"/>
		<circle class="st228" cx="132.08" cy="140.11" r="26.55"/>
		<circle class="st229" cx="133.57" cy="140.78" r="26.55"/>
		<circle class="st230" cx="135.07" cy="141.46" r="26.55"/>
		<circle class="st231" cx="136.57" cy="142.13" r="26.55"/>
		<circle class="st232" cx="138.07" cy="142.81" r="26.55"/>
		<circle class="st233" cx="139.56" cy="143.48" r="26.55"/>
		<circle class="st234" cx="141.06" cy="144.16" r="26.55"/>
		<circle class="st235" cx="142.56" cy="144.83" r="26.55"/>
		<circle class="st236" cx="144.06" cy="145.51" r="26.55"/>
		<circle class="st237" cx="145.56" cy="146.18" r="26.55"/>
		<circle class="st238" cx="147.05" cy="146.85" r="26.55"/>
		<circle class="st239" cx="148.55" cy="147.53" r="26.55"/>
		<circle class="st240" cx="150.05" cy="148.2" r="26.55"/>
		<circle class="st241" cx="151.55" cy="148.88" r="26.55"/>
		<circle class="st242" cx="153.04" cy="149.55" r="26.55"/>
		<circle class="st243" cx="154.54" cy="150.23" r="26.55"/>
		<circle class="st244" cx="156.04" cy="150.9" r="26.55"/>
		<circle class="st245" cx="157.54" cy="151.58" r="26.55"/>
		<circle class="st246" cx="159.04" cy="152.25" r="26.55"/>
		<circle class="st247" cx="160.53" cy="152.93" r="26.55"/>
		<circle class="st248" cx="162.03" cy="153.6" r="26.55"/>
		<circle class="st249" cx="163.53" cy="154.28" r="26.55"/>
		<circle class="st250" cx="165.03" cy="154.95" r="26.55"/>
		<circle class="st251" cx="166.52" cy="155.63" r="26.55"/>
		<circle class="st252" cx="168.02" cy="156.3" r="26.55"/>
		<circle class="st253" cx="169.52" cy="156.98" r="26.55"/>
		<circle class="st254" cx="171.02" cy="157.65" r="26.55"/>
		<circle class="st255" cx="172.52" cy="158.33" r="26.55"/>
		<circle class="st256" cx="174.01" cy="159" r="26.55"/>
		<circle class="st257" cx="175.51" cy="159.68" r="26.55"/>
		<circle class="st258" cx="177.01" cy="160.35" r="26.55"/>
		<circle class="st259" cx="178.51" cy="161.03" r="26.55"/>
		<circle class="st260" cx="180" cy="161.7" r="26.55"/>
		<circle class="st261" cx="180.04" cy="163.31" r="26.55"/>
		<circle class="st262" cx="180.02" cy="164.95" r="26.55"/>
		<circle class="st263" cx="180" cy="166.59" r="26.55"/>
		<circle class="st264" cx="179.98" cy="168.23" r="26.55"/>
		<circle class="st265" cx="179.96" cy="169.88" r="26.55"/>
		<circle class="st266" cx="179.93" cy="171.52" r="26.55"/>
		<circle class="st267" cx="179.91" cy="173.16" r="26.55"/>
		<circle class="st268" cx="179.89" cy="174.8" r="26.55"/>
		<circle class="st269" cx="179.87" cy="176.45" r="26.55"/>
		<circle class="st270" cx="179.85" cy="178.09" r="26.55"/>
		<circle class="st271" cx="179.82" cy="179.73" r="26.55"/>
		<circle class="st272" cx="179.8" cy="181.37" r="26.55"/>
		<circle class="st273" cx="179.78" cy="183.02" r="26.55"/>
		<circle class="st274" cx="179.76" cy="184.66" r="26.55"/>
		<circle class="st275" cx="179.74" cy="186.3" r="26.55"/>
		<circle class="st276" cx="179.72" cy="187.94" r="26.55"/>
		<circle class="st277" cx="179.69" cy="189.59" r="26.55"/>
		<circle class="st278" cx="179.67" cy="191.23" r="26.55"/>
		<circle class="st279" cx="179.65" cy="192.87" r="26.55"/>
		<circle class="st280" cx="179.63" cy="194.52" r="26.55"/>
		<circle class="st281" cx="179.61" cy="196.16" r="26.55"/>
		<circle class="st282" cx="179.58" cy="197.8" r="26.55"/>
		<circle class="st283" cx="179.56" cy="199.44" r="26.55"/>
		<circle class="st284" cx="179.54" cy="201.09" r="26.55"/>
		<circle class="st285" cx="179.52" cy="202.73" r="26.55"/>
		<circle class="st286" cx="179.5" cy="204.37" r="26.55"/>
		<circle class="st287" cx="179.48" cy="206.01" r="26.55"/>
		<circle class="st288" cx="179.45" cy="207.66" r="26.55"/>
		<circle class="st289" cx="179.43" cy="209.3" r="26.55"/>
		<circle class="st290" cx="179.41" cy="210.94" r="26.55"/>
		<circle class="st291" cx="179.39" cy="212.58" r="26.55"/>
		<circle class="st292" cx="179.37" cy="214.23" r="26.55"/>
		<circle class="st293" cx="179.34" cy="215.87" r="26.55"/>
		<circle class="st294" cx="179.32" cy="217.51" r="26.55"/>
		<circle class="st295" cx="179.3" cy="219.16" r="26.55"/>
		<circle class="st296" cx="179.28" cy="220.8" r="26.55"/>
		<circle class="st297" cx="179.26" cy="222.44" r="26.55"/>
		<circle class="st298" cx="179.24" cy="224.08" r="26.55"/>
		<circle class="st299" cx="179.21" cy="225.73" r="26.55"/>
		<circle class="st300" cx="179.19" cy="227.37" r="26.55"/>
		<circle class="st301" cx="179.17" cy="229.01" r="26.55"/>
		<circle class="st302" cx="179.15" cy="230.65" r="26.55"/>
		<circle class="st303" cx="179.13" cy="232.3" r="26.55"/>
		<circle class="st304" cx="177.62" cy="231.59" r="26.55"/>
		<circle class="st305" cx="176.11" cy="230.88" r="26.55"/>
		<circle class="st306" cx="174.59" cy="230.17" r="26.55"/>
		<circle class="st307" cx="173.08" cy="229.46" r="26.55"/>
		<circle class="st307" cx="171.57" cy="228.76" r="26.55"/>
		<circle class="st308" cx="170.06" cy="228.05" r="26.55"/>
		<circle class="st309" cx="168.55" cy="227.34" r="26.55"/>
		<circle class="st309" cx="167.04" cy="226.63" r="26.55"/>
		<circle class="st310" cx="165.53" cy="225.92" r="26.55"/>
		<circle class="st311" cx="164.02" cy="225.22" r="26.55"/>
		<circle class="st312" cx="162.51" cy="224.51" r="26.55"/>
		<circle class="st312" cx="161" cy="223.8" r="26.55"/>
		<circle class="st313" cx="159.49" cy="223.09" r="26.55"/>
		<circle class="st314" cx="157.98" cy="222.39" r="26.55"/>
		<circle class="st315" cx="156.47" cy="221.68" r="26.55"/>
		<circle class="st316" cx="154.96" cy="220.97" r="26.55"/>
		<circle class="st317" cx="153.45" cy="220.26" r="26.55"/>
		<circle class="st318" cx="151.93" cy="219.55" r="26.55"/>
		<circle class="st319" cx="150.42" cy="218.85" r="26.55"/>
		<circle class="st320" cx="148.91" cy="218.14" r="26.55"/>
		<circle class="st320" cx="147.4" cy="217.43" r="26.55"/>
		<circle class="st321" cx="145.89" cy="216.72" r="26.55"/>
		<circle class="st322" cx="144.38" cy="216.01" r="26.55"/>
		<circle class="st322" cx="142.87" cy="215.31" r="26.55"/>
		<circle class="st323" cx="141.36" cy="214.6" r="26.55"/>
		<circle class="st324" cx="139.85" cy="213.89" r="26.55"/>
		<circle class="st325" cx="138.34" cy="213.18" r="26.55"/>
		<circle class="st326" cx="136.83" cy="212.47" r="26.55"/>
		<circle class="st327" cx="135.32" cy="211.77" r="26.55"/>
		<circle class="st328" cx="133.81" cy="211.06" r="26.55"/>
		<circle class="st329" cx="132.3" cy="210.35" r="26.55"/>
		<circle class="st330" cx="130.79" cy="209.64" r="26.55"/>
		<circle class="st331" cx="129.27" cy="208.93" r="26.55"/>
		<circle class="st332" cx="127.76" cy="208.23" r="26.55"/>
		<circle class="st333" cx="126.25" cy="207.52" r="26.55"/>
		<circle class="st334" cx="124.74" cy="206.81" r="26.55"/>
		<circle class="st335" cx="123.23" cy="206.1" r="26.55"/>
		<circle class="st336" cx="121.72" cy="205.39" r="26.55"/>
		<circle class="st337" cx="120.21" cy="204.69" r="26.55"/>
		<circle class="st337" cx="118.7" cy="203.98" r="26.55"/>
		<circle class="st338" cx="117.19" cy="203.27" r="26.55"/>
		<circle class="st339" cx="115.68" cy="202.56" r="26.55"/>
		<circle class="st340" cx="114.17" cy="201.86" r="26.55"/>
		<circle class="st341" cx="112.66" cy="201.15" r="26.55"/>
		<circle class="st342" cx="111.15" cy="200.44" r="26.55"/>
		<circle class="st342" cx="109.64" cy="199.73" r="26.55"/>
		<circle class="st343" cx="108.13" cy="199.02" r="26.55"/>
		<circle class="st344" cx="106.61" cy="198.32" r="26.55"/>
		<circle class="st344" cx="105.1" cy="197.61" r="26.55"/>
		<circle class="st345" cx="103.59" cy="196.9" r="26.55"/>
		<circle class="st346" cx="102.08" cy="196.19" r="26.55"/>
		<circle class="st347" cx="100.57" cy="195.48" r="26.55"/>
		<circle class="st347" cx="99.06" cy="194.78" r="26.55"/>
		<circle class="st348" cx="97.55" cy="194.07" r="26.55"/>
		<circle class="st349" cx="96.04" cy="193.36" r="26.55"/>
		<circle class="st349" cx="94.53" cy="192.65" r="26.55"/>
		<circle class="st350" cx="93.02" cy="191.94" r="26.55"/>
		<circle class="st351" cx="91.51" cy="191.24" r="26.55"/>
		<circle class="st352" cx="90" cy="190.53" r="26.55"/>
		<circle class="st353" cx="88.49" cy="189.82" r="26.55"/>
		<circle class="st354" cx="86.98" cy="189.11" r="26.55"/>
		<circle class="st354" cx="85.47" cy="188.4" r="26.55"/>
		<circle class="st355" cx="83.95" cy="187.7" r="26.55"/>
		<circle class="st356" cx="82.44" cy="186.99" r="26.55"/>
		<circle class="st357" cx="80.93" cy="186.28" r="26.55"/>
		<circle class="st358" cx="79.42" cy="185.57" r="26.55"/>
		<circle class="st359" cx="77.91" cy="184.86" r="26.55"/>
		<circle class="st360" cx="76.4" cy="184.16" r="26.55"/>
		<circle class="st361" cx="74.89" cy="183.45" r="26.55"/>
		<circle class="st362" cx="73.38" cy="182.74" r="26.55"/>
		<circle class="st363" cx="71.87" cy="182.03" r="26.55"/>
		<circle class="st364" cx="70.36" cy="181.33" r="26.55"/>
		<circle class="st365" cx="68.85" cy="180.62" r="26.55"/>
		<circle class="st366" cx="67.34" cy="179.91" r="26.55"/>
		<circle class="st367" cx="65.83" cy="179.2" r="26.55"/>
		<circle class="st368" cx="64.32" cy="178.49" r="26.55"/>
		<circle class="st369" cx="62.81" cy="177.79" r="26.55"/>
		<circle class="st369" cx="61.29" cy="177.08" r="26.55"/>
		<circle class="st370" cx="59.78" cy="176.37" r="26.55"/>
		<circle class="st371" cx="58.27" cy="175.66" r="26.55"/>
		<circle class="st371" cx="56.76" cy="174.95" r="26.55"/>
		<circle class="st372" cx="55.25" cy="174.25" r="26.55"/>
		<circle class="st373" cx="53.74" cy="173.54" r="26.55"/>
		<circle class="st374" cx="52.23" cy="172.83" r="26.55"/>
		<circle class="st375" cx="50.72" cy="172.12" r="26.55"/>
		<circle class="st376" cx="49.21" cy="171.41" r="26.55"/>
		<circle class="st377" cx="47.7" cy="170.71" r="26.55"/>
		<circle class="st378" cx="46.19" cy="170" r="26.55"/>
		<circle class="st379" cx="44.68" cy="169.29" r="26.55"/>
		<circle class="st379" cx="43.17" cy="168.58" r="26.55"/>
		<circle class="st380" cx="41.66" cy="167.87" r="26.55"/>
		<circle class="st381" cx="40.15" cy="167.17" r="26.55"/>
		<circle class="st382" cx="38.63" cy="166.46" r="26.55"/>
		<circle class="st382" cx="37.12" cy="165.75" r="26.55"/>
		<circle class="st383" cx="35.61" cy="165.04" r="26.55"/>
		<circle class="st384" cx="34.1" cy="164.33" r="26.55"/>
		<circle class="st384" cx="32.59" cy="163.63" r="26.55"/>
		<circle class="st385" cx="31.08" cy="162.92" r="26.55"/>
		<circle class="st386" cx="29.57" cy="162.21" r="26.55"/>
		<circle class="st387" cx="28.06" cy="161.5" r="26.55"/>
		<circle class="st388" cx="26.55" cy="160.8" r="26.55"/>
	</g>
</g>
</svg>
